<?xml version="1.0" encoding="utf-8"?>
<!-- Generator: Adobe Illustrator 26.3.1, SVG Export Plug-In . SVG Version: 6.00 Build 0)  -->
<svg version="1.1" id="Layer_1" xmlns="http://www.w3.org/2000/svg" xmlns:xlink="http://www.w3.org/1999/xlink" x="0px" y="0px"
	 viewBox="0 0 512 512" style="enable-background:new 0 0 512 512;" xml:space="preserve">
<style type="text/css">
	.st0{fill-rule:evenodd;clip-rule:evenodd;}
</style>
<g>
	<path fill="#ffb800" class="st0" d="M140.79,371.21c9.94,9.94,9.94,26.04,0,35.96c-9.94,9.94-26.04,9.94-35.96,0c-9.94-9.93-9.94-26.03,0-35.96
		C114.74,361.26,130.84,361.26,140.79,371.21 M443.16,140.76l-68.59,68.6l-17.98-17.99c-9.92-9.95-26.02-9.95-35.96,0
		c-9.92,9.93-9.92,26.04,0,35.96l17.98,17.98l-35.96,35.96l-17.98-17.98c-9.94-9.93-26.04-9.93-35.96,0
		c-9.94,9.94-9.94,26.04,0,35.99l17.98,17.98l-35.96,35.96l-18.01-17.98c-9.92-9.95-26.02-9.95-35.96,0
		c-9.92,9.91-9.92,26.01,0,35.96l17.98,17.98l-53.94,53.95c-9.94,9.94-26.04,9.94-35.96,0l-35.96-35.96
		c-9.94-9.93-9.94-26.03,0-35.96L371.24,68.84c9.92-9.94,26.02-9.94,35.96,0l35.96,35.96C453.11,114.75,453.11,130.85,443.16,140.76
		 M497.11,86.82L425.18,14.9c-19.86-19.86-52.06-19.86-71.93,0L14.89,353.23c-19.86,19.86-19.86,52.06,0,71.93l71.95,71.95
		c19.86,19.86,52.06,19.86,71.92,0l71.95-71.95l35.96-35.96l35.96-35.96l35.96-35.96l35.96-35.99l35.99-35.96l86.55-86.56
		C516.97,138.89,516.97,106.69,497.11,86.82"/>
</g>
</svg>
